<svg width="25" height="25" viewBox="0 0 25 25" fill="none" xmlns="http://www.w3.org/2000/svg">
<g clip-path="url(#clip0_1_183)">
<path d="M22.9671 4.63125C22.2898 4.14375 20.4023 3.49609 12.4933 3.49609C4.01794 3.49609 2.76052 4.23984 2.35698 4.4832C0.209326 5.77341 0.0054199 11.4855 -0.0133057 12.6437C0.0124756 14.1735 0.259741 19.2629 2.35544 20.5219C2.7582 20.7644 4.00856 21.5039 12.4933 21.5039C20.4074 21.5039 22.2925 20.8594 22.9671 20.3738C24.7976 19.057 25.0082 14.5223 25.0132 12.6238C25.0085 11.0973 24.8484 5.98635 22.9672 4.63127L22.9671 4.63125ZM22.0546 19.1059C21.7824 19.3019 20.219 19.9414 12.4933 19.9414C5.02414 19.9414 3.45695 19.3617 3.16086 19.1832C2.40696 18.7308 1.61125 16.3297 1.54878 12.6394C1.6105 8.9574 2.41714 6.26951 3.16247 5.82263C3.45935 5.64333 5.03237 5.05896 12.4933 5.05896C20.2128 5.05896 21.7804 5.70273 22.0546 5.89961C22.7238 6.38164 23.4402 8.91914 23.4507 12.6289C23.4402 16.3969 22.7191 18.6277 22.0546 19.1059H22.0546ZM17.5882 11.8855L10.5586 7.5718C10.4401 7.50034 10.3047 7.46164 10.1664 7.45965C10.028 7.45766 9.89157 7.49245 9.77106 7.56047C9.65044 7.6285 9.55006 7.72736 9.48019 7.84692C9.41032 7.96648 9.37347 8.10246 9.3734 8.24094V16.8698C9.37351 17.077 9.45585 17.2757 9.60234 17.4222C9.74883 17.5686 9.94748 17.651 10.1547 17.6511C10.2968 17.6511 10.4363 17.6124 10.5581 17.539L17.5878 13.2238C17.8222 13.082 17.9656 12.8285 17.9656 12.5546C17.9656 12.2808 17.8226 12.0265 17.5882 11.8855H17.5882ZM10.9363 15.4859V9.62412L15.6726 12.5546L10.9363 15.4859Z" fill="#7D0202"/>
</g>
<defs>
<clipPath id="clip0_1_183">
<rect width="25" height="25" fill="white"/>
</clipPath>
</defs>
</svg>
